<?xml version="1.0" encoding="utf-8"?>
<!-- Generator: Adobe Illustrator 26.0.3, SVG Export Plug-In . SVG Version: 6.00 Build 0)  -->
<svg version="1.1" id="Artwork" xmlns="http://www.w3.org/2000/svg" xmlns:xlink="http://www.w3.org/1999/xlink" x="0px" y="0px"
	 viewBox="0 0 850.39 136.42" style="enable-background:new 0 0 850.39 136.42;" xml:space="preserve">
<style type="text/css">
	.st0{fill:#FFFFFF;}
</style>
<path class="st0" d="M688.1,24.87c-34.21,0-54.66,20.73-54.66,55.78c0,35.04,20.44,55.77,54.66,55.77
	c34.21,0,54.44-20.73,54.44-55.77C742.54,45.6,722.31,24.87,688.1,24.87z M688.1,113.99c-16.69,0-26.49-12.39-26.49-33.34
	c0-20.95,9.8-33.55,26.49-33.55c16.69,0,26.49,12.61,26.49,33.55C714.59,101.59,704.79,113.99,688.1,113.99z M850.39,101.16
	c0,22.01-17.73,35.26-47.56,35.26c-30.04,0-47.56-13.68-47.56-36.97h25.66c0,11.97,8.14,19.02,21.9,19.02
	c13.35,0,21.07-5.13,21.07-14.1c0-11.33-12.31-13.46-26.08-15.81c-18.15-2.99-39.84-6.62-39.84-31.2c0-20.3,16.69-32.48,44.85-32.48
	c27.95,0,44.64,13.03,44.64,35.26h-25.66c0-11.33-6.89-17.74-18.98-17.74c-11.47,0-18.36,4.7-18.36,12.61
	c0,9.62,11.47,11.54,24.82,13.89C827.87,72.1,850.39,75.95,850.39,101.16z M375.8,67.83v66.46h-27.53V69.11
	c0-13.89-7.3-22.01-19.61-22.01c-13.77,0-21.9,10.47-21.9,27.99v59.2h-27.54V69.11c0-13.89-7.09-22.01-19.4-22.01
	c-13.98,0-22.11,10.47-22.11,27.99v59.2h-27.53V27.01h27.53v27.15l-0.09,9.58c2.59-19.36,15.71-38.87,34.3-38.87
	c19.27,0,31.58,10.36,34.27,29.29l0.35,9.58c2.47-19.36,15.17-38.87,33.39-38.87C362.45,24.87,375.8,40.69,375.8,67.83z
	 M615.08,68.89v65.39h-27.54V70.18c0-14.53-7.51-23.08-20.44-23.08c-14.6,0-23.15,10.9-23.15,29.06v58.13h-27.54V27.01h27.54v27.15
	l-0.04,9.58c2.69-19.32,15.79-38.87,34.46-38.87C601.52,24.87,615.08,41.12,615.08,68.89z M190.59,72.3h-0.01
	c-2.85-30.12-21.43-47.42-50.92-47.42c-32.54,0-51.73,20.51-51.73,55.77c0,35.05,19.19,55.78,51.73,55.78
	c27.74,0,46.7-14.31,51.03-38.72h-26.87c-3.16,10.76-11.86,17.35-24.16,17.35c-13.65,0-22.52-12.54-24.64-29.91h75.96v-4.5
	c0-2.77-0.13-5.45-0.37-8.04L190.59,72.3z M114.96,72.3c2.1-17.31,10.98-26.27,24.7-26.27c13.52,0,22.39,8.96,24.29,26.27H114.96z
	 M496.84,72.3h-0.01c-2.85-30.12-21.43-47.42-50.92-47.42c-32.54,0-51.73,20.51-51.73,55.77c0,35.05,19.19,55.78,51.73,55.78
	c27.74,0,46.7-14.31,51.03-38.72h-26.87c-3.16,10.76-11.86,17.35-24.16,17.35c-13.65,0-22.52-12.54-24.64-29.91h75.96v-4.5
	c0-2.77-0.13-5.45-0.37-8.03L496.84,72.3z M421.2,72.3c2.1-17.31,10.98-26.27,24.7-26.27c13.52,0,22.39,8.96,24.29,26.27H421.2z
	 M44.87,27.01h32.54v19.45H44.87v51.71c0,10.04,6.26,15.82,16.69,15.82c5.01,0,10.22-1.28,13.98-3.42v20.94
	c-6.26,2.99-14.81,4.92-22.74,4.92c-22.32,0-35.46-12.82-35.46-34.62V46.46H0V27.01h17.33V0h27.54V27.01z"/>
</svg>
